<svg width="24" height="24" viewBox="0 0 24 24" fill="none" xmlns="http://www.w3.org/2000/svg">
<path d="M3.375 19.5H20.625M3.375 19.5C3.07663 19.5 2.79048 19.3815 2.5795 19.1705C2.36853 18.9595 2.25 18.6734 2.25 18.375M3.375 19.5H4.875C5.496 19.5 6 18.996 6 18.375M20.625 19.5C21.246 19.5 21.75 18.996 21.75 18.375M20.625 19.5H19.125C18.8266 19.5 18.5405 19.3815 18.3295 19.1705C18.1185 18.9595 18 18.6734 18 18.375M2.25 18.375V5.625M2.25 18.375V16.875C2.25 16.254 2.754 15.75 3.375 15.75M6 18.375V13.125M6 18.375C6 18.996 6.504 19.5 7.125 19.5H16.875C17.496 19.5 18 18.996 18 18.375M6 18.375V16.875C6 16.254 5.496 15.75 4.875 15.75M2.25 5.625C2.25 5.004 2.754 4.5 3.375 4.5M2.25 5.625V7.125C2.25 7.746 2.754 8.25 3.375 8.25M3.375 15.75C2.754 15.75 2.25 15.246 2.25 14.625V13.125C2.25 12.504 2.754 12 3.375 12M3.375 15.75H4.875M21.75 18.375V5.625M21.75 18.375V16.875C21.75 16.254 21.246 15.75 20.625 15.75M21.75 5.625C21.75 5.004 21.246 4.5 20.625 4.5M21.75 5.625V7.125C21.75 7.746 21.246 8.25 20.625 8.25M20.625 15.75C21.246 15.75 21.75 15.246 21.75 14.625V13.125C21.75 12.504 21.246 12 20.625 12M20.625 15.75H19.125M18 18.375V13.125M18 18.375V16.875C18 16.254 18.504 15.75 19.125 15.75M20.625 4.5H3.375M20.625 4.5H19.125C18.504 4.5 18 5.004 18 5.625M3.375 4.5H4.875C5.496 4.5 6 5.004 6 5.625M18 5.625C18 5.004 17.496 4.5 16.875 4.5H7.125C6.504 4.5 6 5.004 6 5.625M18 5.625V7.125C18 7.42337 18.1185 7.70952 18.3295 7.9205C18.5405 8.13147 18.8266 8.25 19.125 8.25M18 5.625V10.875M20.625 8.25H19.125M20.625 8.25C21.246 8.25 21.75 8.754 21.75 9.375V10.875C21.75 11.496 21.246 12 20.625 12M6 5.625V7.125C6 7.746 5.496 8.25 4.875 8.25M6 5.625V10.875M3.375 8.25H4.875M3.375 8.25C2.754 8.25 2.25 8.754 2.25 9.375V10.875C2.25 11.496 2.754 12 3.375 12M4.875 8.25C5.496 8.25 6 8.754 6 9.375V10.875M3.375 12H4.875M6 10.875C6 11.1734 6.11853 11.4595 6.3295 11.6705C6.54048 11.8815 6.82663 12 7.125 12M6 10.875C6 11.496 5.496 12 4.875 12M19.125 8.25C18.504 8.25 18 8.754 18 9.375V10.875M18 10.875C18 11.496 17.496 12 16.875 12M18 10.875C18 11.496 18.504 12 19.125 12M20.625 12H19.125M7.125 12H16.875M7.125 12C6.504 12 6 12.504 6 13.125M16.875 12C17.496 12 18 12.504 18 13.125M6 13.125V14.625C6 15.246 5.496 15.75 4.875 15.75M6 13.125C6 12.504 5.496 12 4.875 12M19.125 12C18.504 12 18 12.504 18 13.125M18 13.125V14.625C18 15.246 18.504 15.75 19.125 15.75" stroke="black" stroke-width="1.5" stroke-linecap="round" stroke-linejoin="round"/>
</svg>
