<svg width="32" height="32" viewBox="0 0 32 32" fill="none" xmlns="http://www.w3.org/2000/svg">
<path d="M31.2619 13.0165L17.077 0.609713C16.6159 0.206378 16.0086 -0.0119012 15.3821 0.000500976C14.7557 0.0129032 14.1585 0.255026 13.7154 0.676262L0.6695 13.0792L0 13.7156V32H12.5714V20.5915H19.4286V32H32V13.6621L31.2619 13.0165ZM15.4313 2.17308C15.4514 2.17308 15.439 2.17722 15.4304 2.1853C15.4214 2.17722 15.4111 2.17308 15.4313 2.17308ZM29.7143 29.827H21.7143V20.5915C21.7143 20.0152 21.4735 19.4625 21.0448 19.055C20.6162 18.6475 20.0348 18.4185 19.4286 18.4185H12.5714C11.9652 18.4185 11.3838 18.6475 10.9552 19.055C10.5265 19.4625 10.2857 20.0152 10.2857 20.5915V29.827H2.28571V14.6157L15.4313 2.2128C15.4322 2.21199 15.4323 2.21124 15.433 2.21043L29.7143 14.6157V29.827Z" fill="currentColor"/>
</svg>
