<svg width="32" height="32" viewBox="0 0 32 32" fill="none" xmlns="http://www.w3.org/2000/svg">
<path d="M18.2903 0.819849C17.661 0.292002 16.8449 0 15.9989 0C15.1529 0 14.3367 0.292002 13.7074 0.819849L1.136 11.3654C0.778566 11.6655 0.492718 12.0324 0.297011 12.4423C0.101303 12.8522 0.000110075 13.2959 0 13.7447V28.7992C0 29.6481 0.361224 30.4622 1.00421 31.0625C1.64719 31.6628 2.51926 32 3.42857 32H8C8.90931 32 9.78138 31.6628 10.4244 31.0625C11.0673 30.4622 11.4286 29.6481 11.4286 28.7992V20.2637C11.4286 19.9807 11.549 19.7093 11.7633 19.5093C11.9776 19.3092 12.2683 19.1968 12.5714 19.1968H19.4286C19.7317 19.1968 20.0224 19.3092 20.2367 19.5093C20.451 19.7093 20.5714 19.9807 20.5714 20.2637V28.7992C20.5714 29.6481 20.9327 30.4622 21.5756 31.0625C22.2186 31.6628 23.0907 32 24 32H28.5714C29.4807 32 30.3528 31.6628 30.9958 31.0625C31.6388 30.4622 32 29.6481 32 28.7992V13.7447C31.9999 13.2959 31.8987 12.8522 31.703 12.4423C31.5073 12.0324 31.2214 11.6655 30.864 11.3654L18.2926 0.819849H18.2903Z" fill="currentColor"/>
</svg>
