<svg width="24" height="26" viewBox="0 0 24 26" fill="none" xmlns="http://www.w3.org/2000/svg">
<path d="M12 0.666687C10.6815 0.666687 9.39253 1.05768 8.2962 1.79022C7.19987 2.52277 6.34539 3.56396 5.8408 4.78213C5.33622 6.0003 5.2042 7.34075 5.46143 8.63396C5.71867 9.92716 6.3536 11.115 7.28596 12.0474C8.21831 12.9797 9.40619 13.6147 10.6994 13.8719C11.9926 14.1292 13.333 13.9971 14.5512 13.4926C15.7694 12.988 16.8106 12.1335 17.5431 11.0372C18.2757 9.94083 18.6667 8.6519 18.6667 7.33335C18.6667 5.56524 17.9643 3.86955 16.714 2.61931C15.4638 1.36907 13.7681 0.666687 12 0.666687V0.666687ZM12 11.3334C11.2089 11.3334 10.4355 11.0988 9.77772 10.6592C9.11992 10.2197 8.60723 9.59499 8.30448 8.86409C8.00173 8.13318 7.92252 7.32892 8.07686 6.55299C8.2312 5.77707 8.61216 5.06434 9.17157 4.50493C9.73098 3.94552 10.4437 3.56455 11.2196 3.41021C11.9956 3.25587 12.7998 3.33509 13.5307 3.63784C14.2616 3.94059 14.8864 4.45328 15.3259 5.11107C15.7654 5.76887 16 6.54223 16 7.33335C16 8.39422 15.5786 9.41164 14.8284 10.1618C14.0783 10.9119 13.0609 11.3334 12 11.3334V11.3334ZM24 26V24.6667C24 22.1913 23.0167 19.8174 21.2663 18.067C19.516 16.3167 17.142 15.3334 14.6667 15.3334H9.33333C6.85798 15.3334 4.48401 16.3167 2.73367 18.067C0.98333 19.8174 0 22.1913 0 24.6667V26H2.66667V24.6667C2.66667 22.8986 3.36905 21.2029 4.61929 19.9526C5.86953 18.7024 7.56522 18 9.33333 18H14.6667C16.4348 18 18.1305 18.7024 19.3807 19.9526C20.631 21.2029 21.3333 22.8986 21.3333 24.6667V26H24Z" fill="currentColor"/>
</svg>
